<?xml version="1.0" encoding="utf-8"?><!-- Uploaded to: SVG Repo, www.svgrepo.com, Generator: SVG Repo Mixer Tools -->
<svg fill="#000000" width="800px" height="800px" viewBox="0 0 24 24" id="framer" data-name="Flat Color" xmlns="http://www.w3.org/2000/svg" class="icon flat-color"><path id="primary" d="M19,2H6.75A1,1,0,0,0,6,3.66L9.8,8H5A1,1,0,0,0,4,9v6a1,1,0,0,0,.29.71l6,6A1,1,0,0,0,11,22a.84.84,0,0,0,.38-.08A1,1,0,0,0,12,21V16h5.25A1,1,0,0,0,18,14.34L14.2,10H19a1,1,0,0,0,1-1V3A1,1,0,0,0,19,2Z" style="fill: rgb(0, 0, 0);"></path></svg>